<svg width="100" height="100" viewBox="0 0 100 100" fill="none" xmlns="http://www.w3.org/2000/svg">
<rect width="100" height="100" fill="black"/>
<path d="M30 57.5L30 44.9318L70.7273 44.9318L70.7273 58.0568C70.7273 62.0076 69.9119 65.3883 68.2812 68.1989C66.6638 71.0095 64.3371 73.1638 61.3011 74.6619C58.2784 76.16 54.6591 76.9091 50.4432 76.9091C46.2008 76.9091 42.5483 76.1534 39.4858 74.642C36.4366 73.1307 34.09 70.9299 32.446 68.0398C30.8153 65.1496 30 61.6364 30 57.5ZM34.375 49.8636L34.375 57.1818C34.375 60.5492 35.0246 63.34 36.3239 65.554C37.6231 67.768 39.4725 69.4186 41.8722 70.5057C44.2718 71.5928 47.1288 72.1364 50.4432 72.1364C53.7311 72.1364 56.5616 71.5994 58.9347 70.5256C61.321 69.4517 63.1506 67.8475 64.4233 65.7131C65.7093 63.5786 66.3523 60.9205 66.3523 57.7386L66.3523 49.8636L34.375 49.8636Z" fill="white"/>
<path d="M70.7273 49.8636L30 49.8636L30 44.9318L70.7273 44.9318L70.7273 49.8636Z" fill="#FF00FF"/>
<path d="M30 23.9318L70.7273 23.9318L70.7273 48.3523L66.3523 48.3523L66.3523 28.8636L52.5909 28.8636L52.5909 46.5227L48.2159 46.5227L48.2159 28.8636L30 28.8636L30 23.9318Z" fill="#FF00FF"/>
</svg>
